<svg xmlns="http://www.w3.org/2000/svg" xmlns:xlink="http://www.w3.org/1999/xlink"  width="2597" height="3444" tabindex="3" viewBox="0 0 2597 3444" class="sample001"><defs><polygon points="0,0 5,5 0,10 10,5" id="parror001"></polygon><marker id="pm001" markerUnits="userSpaceOnUse" markerWidth="25" markerHeight="25" viewBox="0 0 10 10" refX="13" refY="5" orient="auto"><use xlink:href="#parror001" fill="rgba(0,0,200,0.5)"></use></marker></defs><rect fill="white" width="2597" height="3444"></rect><g class="markdownpath"><polygon class="polyarrow" points="1055,64 1065,64 1060,241 "></polygon><path d="M1060,64L1060,241" class="linearrow " marker-end="url(#pm001)"></path></g><g class="markdownpath"><polygon class="polyarrow" points="1055,241 1065,241 1060,432 "></polygon><path d="M1060,241L1060,432" class="linearrow " marker-end="url(#pm001)"></path></g><g class="markdownpath"><polygon class="polyarrow" points="1055,432 1065,432 1060,531 "></polygon><path d="M1060,432L1060,531" class="linearrow " marker-end="url(#pm001)"></path></g><g class="markdownpath"><polygon class="polyarrow" points="1055,531 1065,531 1060,754 "></polygon><path d="M1060,531L1060,754" class="linearrow " marker-end="url(#pm001)"></path></g><g class="markdownpath"><polygon class="polyarrow" points="1055,754 1065,754 1060,1075 "></polygon><path d="M1060,754L1060,1075" class="linearrow " marker-end="url(#pm001)"></path></g><g class="markdownpath"><polygon class="polyarrow" points="1055,1075 1065,1075 1060,1412 "></polygon><path d="M1060,1075L1060,1412" class="linearrow " marker-end="url(#pm001)"></path></g><g class=""><polygon class="polyarrow" points="93.76393202250021,169.47213595499957 98.23606797749979,160.52786404500043 146,190 "></polygon><path d="M96,165L146,190" class="linearrow " marker-end="url(#pm001)"></path></g><g class=""><polygon class="polyarrow" points="143.7639320225002,194.47213595499957 148.2360679774998,185.52786404500043 196,215 "></polygon><path d="M146,190L196,215" class="linearrow " marker-end="url(#pm001)"></path></g><g class=""><polygon class="polyarrow" points="142.46446609406726,193.53553390593274 149.53553390593274,186.46446609406726 196,240 "></polygon><path d="M146,190L196,240" class="linearrow " marker-end="url(#pm001)"></path></g><g class=""><polygon class="polyarrow" points="141.8397485283108,192.77350098112615 150.1602514716892,187.22649901887385 196,265 "></polygon><path d="M146,190L196,265" class="linearrow " marker-end="url(#pm001)"></path></g><g class=""><polygon class="polyarrow" points="141.52786404500043,192.2360679774998 150.47213595499957,187.7639320225002 196,290 "></polygon><path d="M146,190L196,290" class="linearrow " marker-end="url(#pm001)"></path></g><g class=""><polygon class="polyarrow" points="91.25658350974743,166.5811388300842 100.74341649025257,163.4188611699158 146,315 "></polygon><path d="M96,165L146,315" class="linearrow " marker-end="url(#pm001)"></path></g><g class=""><polygon class="polyarrow" points="143.7639320225002,319.4721359549996 148.2360679774998,310.5278640450004 196,340 "></polygon><path d="M146,315L196,340" class="linearrow " marker-end="url(#pm001)"></path></g><g class=""><polygon class="polyarrow" points="93.76393202250021,369.4721359549996 98.23606797749979,360.5278640450004 146,390 "></polygon><path d="M96,365L146,390" class="linearrow " marker-end="url(#pm001)"></path></g><g class=""><polygon class="polyarrow" points="143.7639320225002,394.4721359549996 148.2360679774998,385.5278640450004 196,415 "></polygon><path d="M146,390L196,415" class="linearrow " marker-end="url(#pm001)"></path></g><g class=""><polygon class="polyarrow" points="91.83974852831078,367.7735009811261 100.16025147168922,362.2264990188739 146,440 "></polygon><path d="M96,365L146,440" class="linearrow " marker-end="url(#pm001)"></path></g><g class="markdownpath"><polygon class="polyarrow" points="1186.4522668280918,259.02049653919113 1185.5477331719082,268.97950346080887 96,165 "></polygon><path d="M1186,264L96,165" class="linearrow " marker-end="url(#pm001)"></path></g><g class="markdownpath"><polygon class="polyarrow" points="1179.7122272677886,1058.799544876104 1174.2877727322114,1067.200455123896 96,365 "></polygon><path d="M1177,1063L96,365" class="linearrow " marker-end="url(#pm001)"></path></g><g class=""><polygon class="polyarrow" points="575.7639320225002,1410.4721359549997 580.2360679774998,1401.5278640450003 628,1431 "></polygon><path d="M578,1406L628,1431" class="linearrow " marker-end="url(#pm001)"></path></g><g class=""><polygon class="polyarrow" points="565.7639320225002,739.4721359549995 570.2360679774998,730.5278640450005 618,760 "></polygon><path d="M568,735L618,760" class="linearrow " marker-end="url(#pm001)"></path></g><g class=""><polygon class="polyarrow" points="564.4644660940672,738.5355339059328 571.5355339059328,731.4644660940672 618,785 "></polygon><path d="M568,735L618,785" class="linearrow " marker-end="url(#pm001)"></path></g><g class=""><polygon class="polyarrow" points="1174.7639320225003,892.4721359549995 1179.2360679774997,883.5278640450005 1227,913 "></polygon><path d="M1177,888L1227,913" class="linearrow " marker-end="url(#pm001)"></path></g><g class=""><polygon class="polyarrow" points="1173.4644660940673,891.5355339059328 1180.5355339059327,884.4644660940672 1227,938 "></polygon><path d="M1177,888L1227,938" class="linearrow " marker-end="url(#pm001)"></path></g><g class=""><polygon class="polyarrow" points="1224.7639320225003,942.4721359549995 1229.2360679774997,933.5278640450005 1277,963 "></polygon><path d="M1227,938L1277,963" class="linearrow " marker-end="url(#pm001)"></path></g><g class=""><polygon class="polyarrow" points="1172.5278640450003,890.2360679774998 1181.4721359549997,885.7639320225002 1227,988 "></polygon><path d="M1177,888L1227,988" class="linearrow " marker-end="url(#pm001)"></path></g><g class=""><polygon class="polyarrow" points="1172.3576165455736,889.8569533817705 1181.6423834544264,886.1430466182295 1227,1013 "></polygon><path d="M1177,888L1227,1013" class="linearrow " marker-end="url(#pm001)"></path></g><g class=""><polygon class="polyarrow" points="1172.2565835097475,889.5811388300842 1181.7434164902525,886.4188611699158 1227,1038 "></polygon><path d="M1177,888L1227,1038" class="linearrow " marker-end="url(#pm001)"></path></g><g class=""><polygon class="polyarrow" points="1174.7639320225003,1067.4721359549997 1179.2360679774997,1058.5278640450003 1227,1088 "></polygon><path d="M1177,1063L1227,1088" class="linearrow " marker-end="url(#pm001)"></path></g><g class=""><polygon class="polyarrow" points="1224.7639320225003,1092.4721359549997 1229.2360679774997,1083.5278640450003 1277,1113 "></polygon><path d="M1227,1088L1277,1113" class="linearrow " marker-end="url(#pm001)"></path></g><g class=""><polygon class="polyarrow" points="1274.7639320225003,1117.4721359549997 1279.2360679774997,1108.5278640450003 1327,1138 "></polygon><path d="M1277,1113L1327,1138" class="linearrow " marker-end="url(#pm001)"></path></g><g class=""><polygon class="polyarrow" points="1222.8397485283108,1090.773500981126 1231.1602514716892,1085.226499018874 1277,1163 "></polygon><path d="M1227,1088L1277,1163" class="linearrow " marker-end="url(#pm001)"></path></g><g class=""><polygon class="polyarrow" points="1222.5278640450003,1090.2360679774997 1231.4721359549997,1085.7639320225003 1277,1188 "></polygon><path d="M1227,1088L1277,1188" class="linearrow " marker-end="url(#pm001)"></path></g><g class=""><polygon class="polyarrow" points="1274.7639320225003,1192.4721359549997 1279.2360679774997,1183.5278640450003 1327,1213 "></polygon><path d="M1277,1188L1327,1213" class="linearrow " marker-end="url(#pm001)"></path></g><g class=""><polygon class="polyarrow" points="1222.2565835097475,1089.5811388300842 1231.7434164902525,1086.4188611699158 1277,1238 "></polygon><path d="M1227,1088L1277,1238" class="linearrow " marker-end="url(#pm001)"></path></g><g class=""><polygon class="polyarrow" points="1274.7639320225003,1242.4721359549997 1279.2360679774997,1233.5278640450003 1327,1263 "></polygon><path d="M1277,1238L1327,1263" class="linearrow " marker-end="url(#pm001)"></path></g><g class=""><polygon class="polyarrow" points="1273.4644660940673,1241.5355339059327 1280.5355339059327,1234.4644660940673 1327,1288 "></polygon><path d="M1277,1238L1327,1288" class="linearrow " marker-end="url(#pm001)"></path></g><g class="markdownpath"><polygon class="polyarrow" points="615.6595991278416,565.7204464803681 622.3404008721584,558.2795535196319 1177,1063 "></polygon><path d="M619,562L1177,1063" class="linearrow " marker-end="url(#pm001)"></path></g><g class=""><polygon class="polyarrow" points="1177.7639320225003,483.4721359549996 1182.2360679774997,474.5278640450004 1230,504 "></polygon><path d="M1180,479L1230,504" class="linearrow " marker-end="url(#pm001)"></path></g><g class=""><polygon class="polyarrow" points="1176.4644660940673,482.53553390593277 1183.5355339059327,475.4644660940673 1230,529 "></polygon><path d="M1180,479L1230,529" class="linearrow " marker-end="url(#pm001)"></path></g><g class=""><polygon class="polyarrow" points="1177.7639320225003,558.4721359549995 1182.2360679774997,549.5278640450005 1230,579 "></polygon><path d="M1180,554L1230,579" class="linearrow " marker-end="url(#pm001)"></path></g><g class=""><polygon class="polyarrow" points="566.7639320225002,341.4721359549996 571.2360679774998,332.5278640450004 619,362 "></polygon><path d="M569,337L619,362" class="linearrow " marker-end="url(#pm001)"></path></g><g class=""><polygon class="polyarrow" points="565.4644660940672,340.53553390593277 572.5355339059328,333.4644660940673 619,387 "></polygon><path d="M569,337L619,387" class="linearrow " marker-end="url(#pm001)"></path></g><g class=""><polygon class="polyarrow" points="564.8397485283108,339.7735009811261 573.1602514716892,334.2264990188739 619,412 "></polygon><path d="M569,337L619,412" class="linearrow " marker-end="url(#pm001)"></path></g><g class=""><polygon class="polyarrow" points="564.5278640450005,339.2360679774998 573.4721359549995,334.7639320225002 619,437 "></polygon><path d="M569,337L619,437" class="linearrow " marker-end="url(#pm001)"></path></g><g class=""><polygon class="polyarrow" points="564.3576165455737,338.8569533817705 573.6423834544263,335.1430466182295 619,462 "></polygon><path d="M569,337L619,462" class="linearrow " marker-end="url(#pm001)"></path></g><g class=""><polygon class="polyarrow" points="564.2565835097474,338.58113883008417 573.7434164902526,335.41886116991583 619,487 "></polygon><path d="M569,337L619,487" class="linearrow " marker-end="url(#pm001)"></path></g><g class=""><polygon class="polyarrow" points="564.1923802617958,338.37360563948687 573.8076197382042,335.62639436051313 619,512 "></polygon><path d="M569,337L619,512" class="linearrow " marker-end="url(#pm001)"></path></g><g class=""><polygon class="polyarrow" points="566.7639320225002,541.4721359549995 571.2360679774998,532.5278640450005 619,562 "></polygon><path d="M569,537L619,562" class="linearrow " marker-end="url(#pm001)"></path></g><g class=""><polygon class="polyarrow" points="572.7639320225002,105.47213595499957 577.2360679774998,96.52786404500043 625,126 "></polygon><path d="M575,101L625,126" class="linearrow " marker-end="url(#pm001)"></path></g><g class=""><polygon class="polyarrow" points="1183.7639320225003,143.47213595499957 1188.2360679774997,134.52786404500043 1236,164 "></polygon><path d="M1186,139L1236,164" class="linearrow " marker-end="url(#pm001)"></path></g><g class=""><polygon class="polyarrow" points="1182.4644660940673,142.53553390593274 1189.5355339059327,135.46446609406726 1236,189 "></polygon><path d="M1186,139L1236,189" class="linearrow " marker-end="url(#pm001)"></path></g><g class=""><polygon class="polyarrow" points="1181.8397485283108,141.77350098112615 1190.1602514716892,136.22649901887385 1236,214 "></polygon><path d="M1186,139L1236,214" class="linearrow " marker-end="url(#pm001)"></path></g><g class=""><polygon class="polyarrow" points="1181.5278640450003,141.2360679774998 1190.4721359549997,136.7639320225002 1236,239 "></polygon><path d="M1186,139L1236,239" class="linearrow " marker-end="url(#pm001)"></path></g><g class=""><polygon class="polyarrow" points="563.8397485283108,737.7735009811262 572.1602514716892,732.2264990188738 618,810 "></polygon><path d="M568,735L618,810" class="linearrow " marker-end="url(#pm001)"></path></g><g class=""><polygon class="polyarrow" points="565.7639320225002,839.4721359549995 570.2360679774998,830.5278640450005 618,860 "></polygon><path d="M568,835L618,860" class="linearrow " marker-end="url(#pm001)"></path></g><g class="  "><circle cx="1060" cy="1452" r="10"></circle><text x="1060" y="1452">#inazuma@s0018</text></g><g class="  "><circle cx="1060" cy="64" r="10"></circle><text x="1060" y="64">@i1</text></g><g class="  "><circle cx="1060" cy="241" r="10"></circle><text x="1060" y="241">@i2</text></g><g class="  "><circle cx="1060" cy="432" r="10"></circle><text x="1060" y="432">@i3</text></g><g class="  "><circle cx="1060" cy="531" r="10"></circle><text x="1060" y="531">@i4</text></g><g class="  "><circle cx="1060" cy="754" r="10"></circle><text x="1060" y="754">@i5</text></g><g class="  "><circle cx="1060" cy="1075" r="10"></circle><text x="1060" y="1075">@i6</text></g><g class="  "><circle cx="1060" cy="1412" r="10"></circle><text x="1060" y="1412">@i7</text></g><g class="  markdownpath"><circle cx="1060" cy="1652" r="10"></circle><text x="1060" y="1652">@i1-&gt;@i2</text></g><g class="  markdownpath"><circle cx="1060" cy="1677" r="10"></circle><text x="1060" y="1677">@i2-&gt;@i3</text></g><g class="  markdownpath"><circle cx="1060" cy="1702" r="10"></circle><text x="1060" y="1702">@i3-&gt;@i4</text></g><g class="  markdownpath"><circle cx="1060" cy="1727" r="10"></circle><text x="1060" y="1727">@i4-&gt;@i5</text></g><g class="  markdownpath"><circle cx="1060" cy="1752" r="10"></circle><text x="1060" y="1752">@i5-&gt;@i6</text></g><g class="  markdownpath"><circle cx="1060" cy="1777" r="10"></circle><text x="1060" y="1777">@i6-&gt;@i7</text></g><g class="  "><circle cx="1060" cy="1802" r="10"></circle><text x="1060" y="1802">node1111</text></g><g class="  "><circle cx="1060" cy="1827" r="10"></circle><text x="1060" y="1827">node1112</text></g><g class="  "><circle cx="1060" cy="1852" r="10"></circle><text x="1060" y="1852">node1106</text></g><g class="  "><circle cx="96" cy="165" r="10"></circle><text x="96" y="165">プロトタイプ@s0009</text></g><g class="  "><circle cx="146" cy="190" r="10"></circle><text x="146" y="190">Python@s0005</text></g><g class="  "><circle cx="196" cy="215" r="10"></circle><text x="196" y="215">pandas</text></g><g class="  "><circle cx="196" cy="240" r="10"></circle><text x="196" y="240">numpy</text></g><g class="  "><circle cx="196" cy="265" r="10"></circle><text x="196" y="265">flask(のちにbottleへ変更)</text></g><g class="  "><circle cx="196" cy="290" r="10"></circle><text x="196" y="290">wxPython</text></g><g class="  "><circle cx="146" cy="315" r="10"></circle><text x="146" y="315">React</text></g><g class="  "><circle cx="196" cy="340" r="10"></circle><text x="196" y="340">axios</text></g><g class="  "><circle cx="96" cy="365" r="10"></circle><text x="96" y="365">リリース@s0013</text></g><g class="  "><circle cx="146" cy="390" r="10"></circle><text x="146" y="390">Rust</text></g><g class="  "><circle cx="196" cy="415" r="10"></circle><text x="196" y="415">serde</text></g><g class="  "><circle cx="146" cy="440" r="10"></circle><text x="146" y="440">React</text></g><g class="  markdownpath"><circle cx="96" cy="465" r="10"></circle><text x="96" y="465">@s0003-&gt;@s0009</text></g><g class="  markdownpath"><circle cx="96" cy="490" r="10"></circle><text x="96" y="490">@s0012-&gt;@s0013</text></g><g class="  "><circle cx="578" cy="1406" r="10"></circle><text x="578" y="1406">#3.0人月（2022/07/01~2022/09/30）@s0016</text></g><g class="  "><circle cx="628" cy="1431" r="10"></circle><text x="628" y="1431">Python-&gt;Rust書き換え</text></g><g class="  "><circle cx="568" cy="735" r="10"></circle><text x="568" y="735">#1.5人月（2022/01/15~2022/02/28）@s0015</text></g><g class="  "><circle cx="618" cy="760" r="10"></circle><text x="618" y="760">pandas-&gt;numpy変換</text></g><g class="  "><circle cx="618" cy="785" r="10"></circle><text x="618" y="785">testデータ作成</text></g><g class=" "><circle cx="618" cy="810" r="10"></circle><text x="618" y="810">アプリの提供形式の検討</text></g><g class=" "><circle cx="568" cy="835" r="10"></circle><text x="568" y="835">暗号資産のウォレットでログインすることを決定</text></g><g class=" "><circle cx="618" cy="860" r="10"></circle><text x="618" y="860">jupyter notebookから利用したい</text></g><g class="  "><circle cx="1177" cy="888" r="10"></circle><text x="1177" y="888">#4.0人月（2022/3/01~2022/06/30）@s0010</text></g><g class="  "><circle cx="1227" cy="913" r="10"></circle><text x="1227" y="913">testデータの作成</text></g><g class="  "><circle cx="1227" cy="938" r="10"></circle><text x="1227" y="938">wxPythonによる連携画面の開発</text></g><g class="  "><circle cx="1277" cy="963" r="10"></circle><text x="1277" y="963">tkinterはmac上でバグが発生し解決不可能になった</text></g><g class="  "><circle cx="1227" cy="988" r="10"></circle><text x="1227" y="988">Reactによるメイン画面開発</text></g><g class="  "><circle cx="1227" cy="1013" r="10"></circle><text x="1227" y="1013">Pythonの後処理作成</text></g><g class="  "><circle cx="1227" cy="1038" r="10"></circle><text x="1227" y="1038">Pyodideの検討</text></g><g class="  "><circle cx="1177" cy="1063" r="10"></circle><text x="1177" y="1063">PythonをRustに書き換えることを決定@s0012</text></g><g class="  "><circle cx="1227" cy="1088" r="10"></circle><text x="1227" y="1088">候補</text></g><g class="  "><circle cx="1277" cy="1113" r="10"></circle><text x="1277" y="1113">JavaScript</text></g><g class="  "><circle cx="1327" cy="1138" r="10"></circle><text x="1327" y="1138">PythonからJavaScriptへの抵抗感</text></g><g class="  "><circle cx="1277" cy="1163" r="10"></circle><text x="1277" y="1163">C</text></g><g class="  "><circle cx="1277" cy="1188" r="10"></circle><text x="1277" y="1188">Rust</text></g><g class="  "><circle cx="1327" cy="1213" r="10"></circle><text x="1327" y="1213">将来的な速度に期待</text></g><g class="  "><circle cx="1277" cy="1238" r="10"></circle><text x="1277" y="1238">Pyodide</text></g><g class="  "><circle cx="1327" cy="1263" r="10"></circle><text x="1327" y="1263">Pythonの速度</text></g><g class="  "><circle cx="1327" cy="1288" r="10"></circle><text x="1327" y="1288">ソースコード丸見え</text></g><g class="  markdownpath"><circle cx="1177" cy="1313" r="10"></circle><text x="1177" y="1313">@s0014-&gt;@s0012</text></g><g class="  "><circle cx="1180" cy="479" r="10"></circle><text x="1180" y="479">#2.5人月（2021/11/01~2022/01/15）@s0007</text></g><g class="  "><circle cx="1230" cy="504" r="10"></circle><text x="1230" y="504">仕様書作成</text></g><g class="  "><circle cx="1230" cy="529" r="10"></circle><text x="1230" y="529">論文</text></g><g class="  "><circle cx="1180" cy="554" r="10"></circle><text x="1180" y="554">目的の明確化</text></g><g class="  "><circle cx="1230" cy="579" r="10"></circle><text x="1230" y="579">DAGを可視化編集できる技術シーズの開発</text></g><g class="  "><circle cx="569" cy="337" r="10"></circle><text x="569" y="337">#4.5人月（2021/06/15~2021/10/31）@s0006</text></g><g class="  "><circle cx="619" cy="362" r="10"></circle><text x="619" y="362">Pythonの実装</text></g><g class="  "><circle cx="619" cy="387" r="10"></circle><text x="619" y="387">要件定義</text></g><g class="  "><circle cx="619" cy="412" r="10"></circle><text x="619" y="412">基本設計</text></g><g class="  "><circle cx="619" cy="437" r="10"></circle><text x="619" y="437">コマンドの実装</text></g><g class="  "><circle cx="619" cy="462" r="10"></circle><text x="619" y="462">操作一覧の決定</text></g><g class="  "><circle cx="619" cy="487" r="10"></circle><text x="619" y="487">操作前後の画面イメージの作成</text></g><g class="  "><circle cx="619" cy="512" r="10"></circle><text x="619" y="512">コマンドパターンに紐づく関数を実装</text></g><g class="  "><circle cx="569" cy="537" r="10"></circle><text x="569" y="537">コマンドパターンを採用</text></g><g class="  "><circle cx="619" cy="562" r="10"></circle><text x="619" y="562">Pythonで実装する@s0014</text></g><g class="  "><circle cx="575" cy="101" r="10"></circle><text x="575" y="101">#1.5人月(２ヶ月目2021/04/01~2021/05/xx)@s0001</text></g><g class="  "><circle cx="625" cy="126" r="10"></circle><text x="625" y="126">mermaid.jsを描画するアプリを開発</text></g><g class="  "><circle cx="575" cy="151" r="10"></circle><text x="575" y="151">mermaid.jsを使わないことを決定</text></g><g class="  "><circle cx="575" cy="176" r="10"></circle><text x="575" y="176">dagre.jsを使わないことを決定</text></g><g class="  "><circle cx="575" cy="201" r="10"></circle><text x="575" y="201">GithubAppsは検討外</text></g><g class="  "><circle cx="1186" cy="139" r="10"></circle><text x="1186" y="139">#1.0人月（2021/05/15~2021/6/15)@s0000</text></g><g class="  "><circle cx="1236" cy="164" r="10"></circle><text x="1236" y="164">jupyter notebookでJavaScriptを公開する環境を構築</text></g><g class="  "><circle cx="1236" cy="189" r="10"></circle><text x="1236" y="189">Reactのtutorial</text></g><g class="  "><circle cx="1236" cy="214" r="10"></circle><text x="1236" y="214">typescriptのtutorial</text></g><g class="  "><circle cx="1236" cy="239" r="10"></circle><text x="1236" y="239">d3.jsのtutorial</text></g><g class="  "><circle cx="1186" cy="264" r="10"></circle><text x="1186" y="264">プロトタイプはPython+Reactで作ることを決定@s0003</text></g><g class="  "><circle cx="1186" cy="289" r="10"></circle><text x="1186" y="289">選定理由: 経験の多い言語</text></g><g class="  "><circle cx="1186" cy="314" r="10"></circle><text x="1186" y="314">リリースは別途検討することを決定</text></g><g class="  "><circle cx="100" cy="2250" r="10"></circle><text x="100" y="2250">#position</text></g><g class="  "><circle cx="100" cy="2275" r="10"></circle><text x="100" y="2275">n,96,140</text></g><g class="  "><circle cx="100" cy="2300" r="10"></circle><text x="100" y="2300">s0000,1186,139</text></g><g class="  "><circle cx="100" cy="2325" r="10"></circle><text x="100" y="2325">s0001,575,101</text></g><g class="  "><circle cx="100" cy="2350" r="10"></circle><text x="100" y="2350">s0006,569,337</text></g><g class="  "><circle cx="100" cy="2375" r="10"></circle><text x="100" y="2375">s0007,1180,479</text></g><g class="  "><circle cx="100" cy="2400" r="10"></circle><text x="100" y="2400">s0010,1177,888</text></g><g class="  "><circle cx="100" cy="2425" r="10"></circle><text x="100" y="2425">s0011,1013,861</text></g><g class="  "><circle cx="100" cy="2450" r="10"></circle><text x="100" y="2450">s0015,568,735</text></g><g class="  "><circle cx="100" cy="2475" r="10"></circle><text x="100" y="2475">s0016,578,1406</text></g><g class="  "><circle cx="100" cy="2500" r="10"></circle><text x="100" y="2500">s0017,179,1034</text></g><g class="  "><circle cx="100" cy="2525" r="10"></circle><text x="100" y="2525">i1,1060,64</text></g><g class="  "><circle cx="100" cy="2550" r="10"></circle><text x="100" y="2550">i2,1060,241</text></g><g class="  "><circle cx="100" cy="2575" r="10"></circle><text x="100" y="2575">i3,1060,432</text></g><g class="  "><circle cx="100" cy="2600" r="10"></circle><text x="100" y="2600">s0018,1060,1452</text></g><g class="  "><circle cx="100" cy="2625" r="10"></circle><text x="100" y="2625">s0019,934,63</text></g><g class="  "><circle cx="100" cy="2650" r="10"></circle><text x="100" y="2650">i4,1060,531</text></g><g class="  "><circle cx="100" cy="2675" r="10"></circle><text x="100" y="2675">i5,1060,754</text></g><g class="  "><circle cx="100" cy="2700" r="10"></circle><text x="100" y="2700">i6,1060,1075</text></g><g class="  "><circle cx="100" cy="2725" r="10"></circle><text x="100" y="2725">i7,1060,1412</text></g><g class="  "><circle cx="100" cy="2750" r="10"></circle><text x="100" y="2750">s0020,1346,1008</text></g><g class="select  "><circle cx="96" cy="140" r="10"></circle><text x="96" y="140">#技術スタック@n</text></g>
<style>circle {r:5;fill:black;}.polyarrow {fill:rgba(69, 6, 243, 0.3)}.linearrow {stroke-width:3px; stroke:rgba(69, 6, 243, 0.3)}#parror001{display:none}.select circle{stroke:blue;stroke-width:10px;}text{font-family: Meslo, Monaco,"Courier New";font-size: 15px;fill: black;transform: translate(15px, 0px);dominant-baseline: middle;}.position text{font-size:20px}.position circle{r:15}.markdownpath path {display:block;stroke:gray;}</style>
</svg>
