<svg xmlns="http://www.w3.org/2000/svg" width="2802" height="2209" tabindex="3" viewBox="0 0 2802 2209" class="sample001"><rect width="2802" height="2209" fill="white"></rect><g class=""><path d="M616,35L666,60" class="linearrow " marker-end="url(#pm001)"></path><polygon class="polyarrow" points="611.5278640450005,43.94427190999916 620.4721359549995,26.05572809000084 666,60 "></polygon></g><g class=""><path d="M722,110L772,135" class="linearrow " marker-end="url(#pm001)"></path><polygon class="polyarrow" points="717.5278640450005,118.94427190999916 726.4721359549995,101.05572809000084 772,135 "></polygon></g><g class=""><path d="M722,110L772,160" class="linearrow " marker-end="url(#pm001)"></path><polygon class="polyarrow" points="714.9289321881346,117.07106781186548 729.0710678118655,102.92893218813452 772,160 "></polygon></g><g class=""><path d="M722,110L772,185" class="linearrow " marker-end="url(#pm001)"></path><polygon class="polyarrow" points="713.6794970566216,115.5470019622523 730.3205029433784,104.4529980377477 772,185 "></polygon></g><g class=""><path d="M722,110L772,210" class="linearrow " marker-end="url(#pm001)"></path><polygon class="polyarrow" points="713.0557280900008,114.47213595499959 730.9442719099992,105.52786404500043 772,210 "></polygon></g><g class=""><path d="M722,110L772,235" class="linearrow " marker-end="url(#pm001)"></path><polygon class="polyarrow" points="712.7152330911474,113.71390676354103 731.2847669088526,106.28609323645897 772,235 "></polygon></g><g class=""><path d="M1472,183L1522,208" class="linearrow " marker-end="url(#pm001)"></path><polygon class="polyarrow" points="1467.5278640450003,191.94427190999915 1476.4721359549997,174.05572809000085 1522,208 "></polygon></g><g class=""><path d="M1472,183L1522,233" class="linearrow " marker-end="url(#pm001)"></path><polygon class="polyarrow" points="1464.9289321881345,190.07106781186548 1479.0710678118655,175.92893218813452 1522,233 "></polygon></g><g class="markdownpath"><path d="M1098,256L1522,233" class="linearrow " marker-end="url(#pm001)"></path><polygon class="polyarrow" points="1098.5416564897268,265.98531963670354 1097.4583435102732,246.0146803632965 1522,233 "></polygon></g><g class="markdownpath"><path d="M1098,231L1522,208" class="linearrow " marker-end="url(#pm001)"></path><polygon class="polyarrow" points="1098.5416564897268,240.9853196367035 1097.4583435102732,221.0146803632965 1522,208 "></polygon></g><g class="markdownpath"><path d="M1098,331L1522,233" class="linearrow " marker-end="url(#pm001)"></path><polygon class="polyarrow" points="1100.2519514307805,340.74313680256034 1095.7480485692195,321.25686319743966 1522,233 "></polygon></g><g class="markdownpath"><path d="M1098,181L1472,183" class="linearrow " marker-end="url(#pm001)"></path><polygon class="polyarrow" points="1097.9465248287738,190.99985701928094 1098.0534751712262,171.00014298071906 1472,183 "></polygon></g><g class=""><path d="M998,131L1048,156" class="linearrow " marker-end="url(#pm001)"></path><polygon class="polyarrow" points="993.5278640450005,139.94427190999915 1002.4721359549995,122.05572809000084 1048,156 "></polygon></g><g class=""><path d="M1048,156L1098,181" class="linearrow " marker-end="url(#pm001)"></path><polygon class="polyarrow" points="1043.5278640450003,164.94427190999915 1052.4721359549997,147.05572809000085 1098,181 "></polygon></g><g class=""><path d="M998,131L1048,206" class="linearrow " marker-end="url(#pm001)"></path><polygon class="polyarrow" points="989.6794970566216,136.5470019622523 1006.3205029433784,125.4529980377477 1048,206 "></polygon></g><g class=""><path d="M1048,206L1098,231" class="linearrow " marker-end="url(#pm001)"></path><polygon class="polyarrow" points="1043.5278640450003,214.94427190999915 1052.4721359549997,197.05572809000085 1098,231 "></polygon></g><g class=""><path d="M1048,206L1098,256" class="linearrow " marker-end="url(#pm001)"></path><polygon class="polyarrow" points="1040.9289321881345,213.07106781186548 1055.0710678118655,198.92893218813452 1098,256 "></polygon></g><g class=""><path d="M1098,256L1148,281" class="linearrow " marker-end="url(#pm001)"></path><polygon class="polyarrow" points="1093.5278640450003,264.94427190999915 1102.4721359549997,247.05572809000085 1148,281 "></polygon></g><g class=""><path d="M1098,256L1148,306" class="linearrow " marker-end="url(#pm001)"></path><polygon class="polyarrow" points="1090.9289321881345,263.0710678118655 1105.0710678118655,248.92893218813452 1148,306 "></polygon></g><g class=""><path d="M1048,206L1098,331" class="linearrow " marker-end="url(#pm001)"></path><polygon class="polyarrow" points="1038.7152330911474,209.71390676354105 1057.2847669088526,202.28609323645895 1098,331 "></polygon></g><g class="markdownpath"><path d="M722,110L998,131" class="linearrow " marker-end="url(#pm001)"></path><polygon class="polyarrow" points="721.2413233404809,119.9711789536795 722.7586766595191,100.0288210463205 998,131 "></polygon></g><g class=" "><circle cx="666" cy="60" r="10"></circle><text x="666" y="60">Pythonコードをwebアプリに組込む</text></g><g class=" "><circle cx="722" cy="110" r="10"></circle><text x="722" y="110">#how-UserStory@u</text></g><g class=" "><circle cx="772" cy="135" r="10"></circle><text x="772" y="135">空の処理</text></g><g class=" "><circle cx="772" cy="160" r="10"></circle><text x="772" y="160">CommandParser</text></g><g class=" "><circle cx="772" cy="185" r="10"></circle><text x="772" y="185">UserOperation</text></g><g class=" "><circle cx="772" cy="210" r="10"></circle><text x="772" y="210">Correction</text></g><g class=" "><circle cx="772" cy="235" r="10"></circle><text x="772" y="235">PseudoUserOperation</text></g><g class=" "><circle cx="1472" cy="183" r="10"></circle><text x="1472" y="183">#Repository@s0002</text></g><g class=" "><circle cx="1522" cy="208" r="10"></circle><text x="1522" y="208">repo01: knowledge@s0004</text></g><g class=" "><circle cx="1522" cy="233" r="10"></circle><text x="1522" y="233">repo02: PyCetera@s0006</text></g><g class=" markdownpath"><circle cx="1472" cy="258" r="10"></circle><text x="1472" y="258">@s0010-&gt;@s0006</text></g><g class=" markdownpath"><circle cx="1472" cy="283" r="10"></circle><text x="1472" y="283">@s0011-&gt;@s0004</text></g><g class=" markdownpath"><circle cx="1472" cy="308" r="10"></circle><text x="1472" y="308">@s0012-&gt;@s0006</text></g><g class=" markdownpath"><circle cx="1472" cy="333" r="10"></circle><text x="1472" y="333">@s0013-&gt;@s0002</text></g><g class=" "><circle cx="998" cy="131" r="10"></circle><text x="998" y="131">#how-step@s0001</text></g><g class=" "><circle cx="1048" cy="156" r="10"></circle><text x="1048" y="156">one-off</text></g><g class=" "><circle cx="1098" cy="181" r="10"></circle><text x="1098" y="181">環境構築: repository作成@s0013</text></g><g class=" "><circle cx="1048" cy="206" r="10"></circle><text x="1048" y="206">each-time</text></g><g class=" "><circle cx="1098" cy="231" r="10"></circle><text x="1098" y="231">基礎技術の確認: notebook作成@s0011</text></g><g class=" "><circle cx="1098" cy="256" r="10"></circle><text x="1098" y="256">変換処理のコーディング/テスト@s0010</text></g><g class=" "><circle cx="1148" cy="281" r="10"></circle><text x="1148" y="281">dylib版(in Python)@s0007</text></g><g class=" "><circle cx="1148" cy="306" r="10"></circle><text x="1148" y="306">Module版の組込(in Node.js)@s0009</text></g><g class=" "><circle cx="1098" cy="331" r="10"></circle><text x="1098" y="331">プロダクトへの組込@s0012</text></g><g class=" "><circle cx="1402" cy="1059" r="10"></circle><text x="1402" y="1059">#flame@s0000</text></g><g class=" markdownpath"><circle cx="1402" cy="1084" r="10"></circle><text x="1402" y="1084">@u-&gt;@s0001</text></g><g class=" "><circle cx="2802" cy="2209" r="10"></circle><text x="2802" y="2209">@ffff</text></g><g class=" position_param"><circle cx="100" cy="775" r="10"></circle><text x="100" y="775">#position</text></g><g class=" "><circle cx="100" cy="800" r="10"></circle><text x="100" y="800">a111,616,35</text></g><g class=" "><circle cx="100" cy="825" r="10"></circle><text x="100" y="825">b,500,100</text></g><g class=" "><circle cx="100" cy="850" r="10"></circle><text x="100" y="850">c,1000,100</text></g><g class=" "><circle cx="100" cy="875" r="10"></circle><text x="100" y="875">d222,700,500</text></g><g class=" "><circle cx="100" cy="900" r="10"></circle><text x="100" y="900">e333,100,1500</text></g><g class=" "><circle cx="100" cy="925" r="10"></circle><text x="100" y="925">ffff,2802,2209</text></g><g class=" "><circle cx="100" cy="950" r="10"></circle><text x="100" y="950">u,722,110</text></g><g class=" "><circle cx="100" cy="975" r="10"></circle><text x="100" y="975">s0000,1402,1059</text></g><g class=" "><circle cx="100" cy="1000" r="10"></circle><text x="100" y="1000">s0001,998,131</text></g><g class=" "><circle cx="100" cy="1025" r="10"></circle><text x="100" y="1025">s0002,1472,183</text></g><g class=" "><circle cx="100" cy="1050" r="10"></circle><text x="100" y="1050">node1070</text></g><g class=" "><circle cx="100" cy="1500" r="10"></circle><text x="100" y="1500">#css@e333</text></g><g class=" "><circle cx="100" cy="1525" r="10"></circle><text x="100" y="1525">rect {fill: white;}</text></g><g class=" "><circle cx="100" cy="1550" r="10"></circle><text x="100" y="1550">circle {r:5;fill:black;}</text></g><g class=" "><circle cx="100" cy="1575" r="10"></circle><text x="100" y="1575">.polyarrow {display:none}</text></g><g class=" "><circle cx="100" cy="1600" r="10"></circle><text x="100" y="1600">.linearrow {stroke:black}</text></g><g class=" "><circle cx="100" cy="1625" r="10"></circle><text x="100" y="1625">.linearrow {display:none}</text></g><g class=" "><circle cx="100" cy="1650" r="10"></circle><text x="100" y="1650"> #parror001{fill:rgba(69, 6, 243, 0.3)}</text></g><g class=" "><circle cx="100" cy="1675" r="10"></circle><text x="100" y="1675">svg {background: black;border: solid 1px #404040;user-select: none}</text></g><g class=" "><circle cx="100" cy="1700" r="10"></circle><text x="100" y="1700">.select circle{stroke:blue;stroke-width:10px;}</text></g><g class=" "><circle cx="100" cy="1725" r="10"></circle><text x="100" y="1725">text{font-family: Meslo, Monaco,"Courier New";font-size: 15px;fill: black;transform: translate(15px, 0px);dominant-baseline: middle;}</text></g><g class=" "><circle cx="100" cy="1750" r="10"></circle><text x="100" y="1750">.div0001 {width:auto;height:auto;padding-bottom:200px;padding-right:200px;background:rgba(10,10,10,0.1);}</text></g><g class=" "><circle cx="100" cy="1775" r="10"></circle><text x="100" y="1775">.position text{font-size:20px}</text></g><g class=" "><circle cx="100" cy="1800" r="10"></circle><text x="100" y="1800">.position circle{r:15}</text></g><g class=" "><circle cx="100" cy="1825" r="10"></circle><text x="100" y="1825">.markdownpath path {display:block;stroke:gray;}</text></g><g class="select "><circle cx="616" cy="35" r="10"></circle><text x="616" y="35">#Purpose@a111</text></g>
<style>.text_area{display:none;position:absolute;left:616px;top:35px;}rect {fill: white;}
circle {r:5;fill:black;}
.polyarrow {display:none}
.linearrow {stroke:black}
.linearrow {display:none}
 #parror001{fill:rgba(69, 6, 243, 0.3)}
svg {background: black;border: solid 1px #404040;user-select: none}
.select circle{stroke:blue;stroke-width:10px;}
text{font-family: Meslo, Monaco,"Courier New";font-size: 15px;fill: black;transform: translate(15px, 0px);dominant-baseline: middle;}
.div0001 {width:auto;height:auto;padding-bottom:200px;padding-right:200px;background:rgba(10,10,10,0.1);}
.position text{font-size:20px}
.position circle{r:15}
.markdownpath path {display:block;stroke:gray;}
</style></svg>
